<svg xmlns="http://www.w3.org/2000/svg" xmlns:xlink="http://www.w3.org/1999/xlink" width="1280" height="167" viewBox="0 0 1280 167">
  <defs>
    <filter id="luminosity-noclip" x="1087.984" y="-4624.485" width="7.428" height="32766" filterUnits="userSpaceOnUse" color-interpolation-filters="sRGB">
      <feFlood flood-color="#fff" result="bg"/>
      <feBlend in="SourceGraphic" in2="bg"/>
    </filter>
    <mask id="mask" x="1087.984" y="-4624.485" width="7.428" height="32766" maskUnits="userSpaceOnUse">
      <g filter="url(#luminosity-noclip)"/>
    </mask>
    <linearGradient id="_ÂÁ_Ï_ÌÌ_È_ËÂÌÚ_34" data-name="¡ÂÁ˚ÏˇÌÌ˚È „‡‰ËÂÌÚ 34" x1="-5208.889" y1="-4420.822" x2="-5208.237" y2="-4420.735" gradientTransform="translate(-333.264 -6624.156) rotate(-142.361)" gradientUnits="userSpaceOnUse">
      <stop offset="0" stop-color="#fff"/>
      <stop offset="0.291" stop-color="#a5a5a5"/>
      <stop offset="0.545" stop-color="#5f5f5f"/>
      <stop offset="0.755" stop-color="#2b2b2b"/>
      <stop offset="0.912" stop-color="#0c0c0c"/>
      <stop offset="1"/>
    </linearGradient>
    <filter id="luminosity-noclip-2" x="1083.401" y="-4624.485" width="8.309" height="32766" filterUnits="userSpaceOnUse" color-interpolation-filters="sRGB">
      <feFlood flood-color="#fff" result="bg"/>
      <feBlend in="SourceGraphic" in2="bg"/>
    </filter>
    <mask id="mask-2" x="1083.401" y="-4624.485" width="8.309" height="32766" maskUnits="userSpaceOnUse">
      <g filter="url(#luminosity-noclip-2)"/>
    </mask>
    <linearGradient id="_ÂÁ_Ï_ÌÌ_È_ËÂÌÚ_34-2" x1="-5286.532" y1="-3237.468" x2="-5285.881" y2="-3237.382" gradientTransform="translate(190.312 -6089.907) rotate(-129.807)" xlink:href="#_ÂÁ_Ï_ÌÌ_È_ËÂÌÚ_34"/>
    <filter id="luminosity-noclip-3" x="1105.186" y="-4624.485" width="49.09" height="32766" filterUnits="userSpaceOnUse" color-interpolation-filters="sRGB">
      <feFlood flood-color="#fff" result="bg"/>
      <feBlend in="SourceGraphic" in2="bg"/>
    </filter>
    <mask id="mask-3" x="1105.186" y="-4624.485" width="49.09" height="32766" maskUnits="userSpaceOnUse">
      <g filter="url(#luminosity-noclip-3)"/>
    </mask>
    <linearGradient id="_ÂÁ_Ï_ÌÌ_È_ËÂÌÚ_74" data-name="¡ÂÁ˚ÏˇÌÌ˚È „‡‰ËÂÌÚ 74" x1="-5350.549" y1="-3441.585" x2="-5306.868" y2="-3422.583" gradientTransform="translate(191.066 -6259.414) rotate(-131.31)" gradientUnits="userSpaceOnUse">
      <stop offset="0"/>
      <stop offset="0.222" stop-color="#030303"/>
      <stop offset="0.358" stop-color="#0b0b0b"/>
      <stop offset="0.471" stop-color="#191919"/>
      <stop offset="0.571" stop-color="#2e2e2e"/>
      <stop offset="0.663" stop-color="#484848"/>
      <stop offset="0.749" stop-color="#696969"/>
      <stop offset="0.829" stop-color="#909090"/>
      <stop offset="0.906" stop-color="#bdbdbd"/>
      <stop offset="0.978" stop-color="#eee"/>
      <stop offset="1" stop-color="#fff"/>
    </linearGradient>
    <clipPath id="clip-path">
      <rect y="-0.515" width="1280" height="168" fill="none"/>
    </clipPath>
    <linearGradient id="linear-gradient" x1="1178.171" y1="72.402" x2="1245.399" y2="72.402" gradientUnits="userSpaceOnUse">
      <stop offset="0" stop-color="#ececec"/>
      <stop offset="1" stop-color="#fff"/>
    </linearGradient>
    <linearGradient id="linear-gradient-2" x1="-308.642" y1="-464.98" x2="-164.771" y2="-464.98" gradientTransform="matrix(1.056, 0.232, -0.2, 1.225, 257.376, 739.928)" gradientUnits="userSpaceOnUse">
      <stop offset="0" stop-color="#ececec"/>
      <stop offset="1" stop-color="#f5f5f5"/>
    </linearGradient>
    <linearGradient id="linear-gradient-3" x1="-419.895" y1="523.695" x2="-276.023" y2="523.695" gradientTransform="matrix(1.055, 0.18, -0.2, 0.95, 571.109, -321.225)" xlink:href="#linear-gradient-2"/>
    <linearGradient id="linear-gradient-4" x1="-588.748" y1="371.424" x2="-571.139" y2="265.136" gradientTransform="matrix(1, 0, 0, 1.026, 685.927, -204.196)" xlink:href="#linear-gradient"/>
    <linearGradient id="linear-gradient-5" x1="238.534" y1="111.127" x2="292.998" y2="111.127" xlink:href="#linear-gradient"/>
    <filter id="luminosity-noclip-4" x="1087.984" y="53.189" width="7.428" height="8.092" filterUnits="userSpaceOnUse" color-interpolation-filters="sRGB">
      <feFlood flood-color="#fff" result="bg"/>
      <feBlend in="SourceGraphic" in2="bg"/>
    </filter>
    <mask id="mask-4" x="1087.984" y="53.189" width="7.428" height="8.092" maskUnits="userSpaceOnUse">
      <g mask="url(#mask)" filter="url(#luminosity-noclip-4)">
        <path d="M1087.984,61.281l7.427-7.024a3.714,3.714,0,0,0-.722-1.068Z" fill="url(#_ÂÁ_Ï_ÌÌ_È_ËÂÌÚ_34)" style="mix-blend-mode: multiply"/>
      </g>
    </mask>
    <linearGradient id="_ÂÁ_Ï_ÌÌ_È_ËÂÌÚ_18" data-name="¡ÂÁ˚ÏˇÌÌ˚È „‡‰ËÂÌÚ 18" x1="-5208.889" y1="-4420.822" x2="-5208.237" y2="-4420.735" gradientTransform="translate(-333.264 -6624.156) rotate(-142.361)" gradientUnits="userSpaceOnUse">
      <stop offset="0"/>
      <stop offset="0" stop-color="#1d1d1b"/>
      <stop offset="0.51" stop-color="#0c0c0b"/>
      <stop offset="1"/>
    </linearGradient>
    <filter id="luminosity-noclip-5" x="1083.401" y="40.156" width="8.309" height="6.036" filterUnits="userSpaceOnUse" color-interpolation-filters="sRGB">
      <feFlood flood-color="#fff" result="bg"/>
      <feBlend in="SourceGraphic" in2="bg"/>
    </filter>
    <mask id="mask-5" x="1083.401" y="40.156" width="8.309" height="6.036" maskUnits="userSpaceOnUse">
      <g mask="url(#mask-2)" filter="url(#luminosity-noclip-5)">
        <path d="M1083.4,46.191l8.309-4.851a3.874,3.874,0,0,0-.491-1.184Z" fill="url(#_ÂÁ_Ï_ÌÌ_È_ËÂÌÚ_34-2)" style="mix-blend-mode: multiply"/>
      </g>
    </mask>
    <linearGradient id="_ÂÁ_Ï_ÌÌ_È_ËÂÌÚ_18-2" x1="-5286.532" y1="-3237.468" x2="-5285.881" y2="-3237.382" gradientTransform="translate(190.312 -6089.907) rotate(-129.807)" xlink:href="#_ÂÁ_Ï_ÌÌ_È_ËÂÌÚ_18"/>
    <filter id="luminosity-noclip-6" x="1105.186" y="-13.968" width="49.09" height="28.609" filterUnits="userSpaceOnUse" color-interpolation-filters="sRGB">
      <feFlood flood-color="#fff" result="bg"/>
      <feBlend in="SourceGraphic" in2="bg"/>
    </filter>
    <mask id="mask-6" x="1105.186" y="-13.968" width="49.09" height="28.609" maskUnits="userSpaceOnUse">
      <g mask="url(#mask-3)" filter="url(#luminosity-noclip-6)">
        <path d="M1108.6,14.641c14.984-10.027,26.442-15.89,33.178-18.428,4.5-1.7,9.222.03,12.5,1.84-.127-1.732-.906-4.282-3.617-7.368-5.059-5.756-9.338-4.547-9.338-4.547l-36.135,27.49S1106.035,12.981,1108.6,14.641Z" fill="url(#_ÂÁ_Ï_ÌÌ_È_ËÂÌÚ_74)" style="mix-blend-mode: multiply"/>
      </g>
    </mask>
    <linearGradient id="_ÂÁ_Ï_ÌÌ_È_ËÂÌÚ_44" data-name="¡ÂÁ˚ÏˇÌÌ˚È „‡‰ËÂÌÚ 44" x1="-5350.549" y1="-3441.585" x2="-5306.868" y2="-3422.583" gradientTransform="translate(191.066 -6259.414) rotate(-131.31)" gradientUnits="userSpaceOnUse">
      <stop offset="0"/>
      <stop offset="0.864"/>
      <stop offset="1"/>
    </linearGradient>
  </defs>
  <title>VCSITE-1188-Dictionary header UI for word entry page-v1</title>
  <g style="isolation: isolate">
    <g id="Layer_1" data-name="Layer 1">
      <rect y="-0.515" width="1280" height="168" fill="#14243a"/>
      <g clip-path="url(#clip-path)">
        <g>
          <g>
            <g opacity="0.04">
              <polygon points="1024.989 30.565 875.99 0.565 726.99 30.565 577.992 0.565 428.996 30.565 279.998 0.565 130.999 30.565 -20.961 -0.031 -15.039 -29.441 130.999 -0.037 279.998 -30.037 428.996 -0.037 577.992 -30.037 726.99 -0.037 875.99 -30.037 1024.989 -0.037 1173.994 -30.037 1325.961 0.559 1320.039 29.969 1173.994 0.565 1024.989 30.565" fill="#0090e3"/>
            </g>
            <g opacity="0.04">
              <polygon points="1024.989 85.565 875.99 55.565 726.99 85.565 577.992 55.565 428.996 85.565 279.998 55.565 130.999 85.565 -20.961 54.969 -15.039 25.559 130.999 54.963 279.998 24.963 428.996 54.963 577.992 24.963 726.99 54.963 875.99 24.963 1024.989 54.963 1173.994 24.963 1325.961 55.559 1320.039 84.969 1173.994 55.565 1024.989 85.565" fill="#0090e3"/>
            </g>
            <g opacity="0.04">
              <polygon points="1024.989 140.565 875.99 110.565 726.99 140.565 577.992 110.565 428.996 140.565 279.998 110.565 130.999 140.565 -20.961 109.969 -15.039 80.559 130.999 109.963 279.998 79.963 428.996 109.963 577.992 79.963 726.99 109.963 875.99 79.963 1024.989 109.963 1173.994 79.963 1325.961 110.559 1320.039 139.969 1173.994 110.565 1024.989 140.565" fill="#0090e3"/>
            </g>
            <g opacity="0.04">
              <polygon points="1024.989 194.565 875.99 164.565 726.99 194.565 577.992 164.565 428.996 194.565 279.998 164.565 130.999 194.565 -20.961 163.969 -15.039 134.559 130.999 163.963 279.998 133.963 428.996 163.963 577.992 133.963 726.99 163.963 875.99 133.963 1024.989 163.963 1173.994 133.963 1325.961 164.559 1320.039 193.969 1173.994 164.565 1024.989 194.565" fill="#0090e3"/>
            </g>
          </g>
          <g>
            <g>
              <polygon points="1279.807 133.403 1228.261 118.216 1249.019 48.046 1300.199 62.687 1300.489 63.21 1279.807 133.403" fill="#00578a"/>
              <path d="M1221.846,116.326s-50.535-14.851-51.258-15.1a.763.763,0,0,1-.46-1l20.929-69.258,51.18,14.642.29.523Z" fill="#2d515d"/>
              <rect x="1168.824" y="46.777" width="73.176" height="52.251" rx="1.778" transform="translate(794.821 1208.573) rotate(-73.584)" fill="#235e96"/>
              <rect x="1228.217" y="64.276" width="73.176" height="52.251" transform="translate(820.611 1278.086) rotate(-73.582)" fill="#6296a4"/>
              <rect x="1228.217" y="64.276" width="73.176" height="52.251" transform="translate(820.611 1278.086) rotate(-73.582)" fill="#00578a"/>
              <path d="M1292.721,56.412l-19.888,67.5s-.438,3.079,4.014,6.508l19.738-66.994A8.647,8.647,0,0,1,1292.721,56.412Z" fill="#cabeae"/>
              <path d="M1229.486,118.138s-1.552,1.022-5.061-.013-4.293-2.743-4.293-2.743l20.681-70.193s.948,1.618,4.331,2.615,5.024.142,5.024.142Z" fill="#2d515d"/>
              <path d="M1225.505,114.721a4.537,4.537,0,0,0,3.031,2.7c2.3.587,39.186,7.408,48.311,13-3.924-3.424-4.014-6.508-4.014-6.508s-.17-1.17-8.968-3.762C1241.742,113.635,1225.505,114.721,1225.505,114.721Z" fill="#b8a892"/>
              <path d="M1272.833,123.915s-15.031-8.229-47.328-9.194l19.9-67.55s23.552-5.463,47.314,9.241Z" fill="#e6e7e8"/>
              <path d="M1178.171,97.568a4.851,4.851,0,0,1-4.412,1.787l19.731-66.967s2.291.419,4.57-2.322Z" fill="#cabeae"/>
              <path d="M1225.505,114.721s-.946,1.2-5.142-.062-34.728-13.5-46.6-15.3a6.968,6.968,0,0,0,4.412-1.787S1195.978,96.671,1225.505,114.721Z" fill="#b09e87"/>
              <path d="M1178.171,97.568s19.663.469,47.325,17.17l19.9-67.552s-19.4-16.592-47.339-17.12Z" fill="url(#linear-gradient)"/>
              <path d="M1178.171,97.568s19.663.469,47.325,17.17l19.9-67.552s-16.977,3.318-35.764,17.9A173.535,173.535,0,0,0,1178.171,97.568Z" fill="#e6e7e8"/>
            </g>
            <g>
              <path d="M1239.644,53.631a60.243,60.243,0,0,0-17.849-9.889,74.475,74.475,0,0,0-20.2-3.932l.205-.773a66.194,66.194,0,0,1,20.321,3.973,64.679,64.679,0,0,1,17.756,9.835Z" fill="#ccc"/>
              <path d="M1238.83,56.261a60.245,60.245,0,0,0-17.848-9.889,74.485,74.485,0,0,0-20.2-3.932l.2-.773a66.194,66.194,0,0,1,20.321,3.973,64.679,64.679,0,0,1,17.756,9.835Z" fill="#ccc"/>
              <path d="M1238.016,58.891A60.268,60.268,0,0,0,1220.167,49a74.475,74.475,0,0,0-20.195-3.932l.2-.773A66.2,66.2,0,0,1,1220.5,48.27a64.652,64.652,0,0,1,17.755,9.835Z" fill="#ccc"/>
              <path d="M1237.2,61.521a60.285,60.285,0,0,0-17.849-9.889,74.479,74.479,0,0,0-20.2-3.932l.205-.773a66.2,66.2,0,0,1,20.322,3.973,64.682,64.682,0,0,1,17.755,9.835Z" fill="#ccc"/>
              <path d="M1236.389,64.151a60.268,60.268,0,0,0-17.849-9.889,74.475,74.475,0,0,0-20.195-3.932l.2-.773a66.2,66.2,0,0,1,20.322,3.973,64.662,64.662,0,0,1,17.755,9.835Z" fill="#ccc"/>
              <path d="M1235.574,66.781a60.271,60.271,0,0,0-17.848-9.889,74.479,74.479,0,0,0-20.2-3.932l.2-.773a66.2,66.2,0,0,1,20.322,3.973A64.7,64.7,0,0,1,1235.813,66Z" fill="#ccc"/>
              <path d="M1234.761,69.411a60.268,60.268,0,0,0-17.849-9.889,74.475,74.475,0,0,0-20.195-3.932l.2-.773a66.2,66.2,0,0,1,20.322,3.973A64.679,64.679,0,0,1,1235,68.625Z" fill="#ccc"/>
              <path d="M1233.947,72.041a60.268,60.268,0,0,0-17.849-9.889A74.475,74.475,0,0,0,1195.9,58.22l.2-.773a66.2,66.2,0,0,1,20.322,3.973,64.679,64.679,0,0,1,17.756,9.835Z" fill="#ccc"/>
              <path d="M1233.133,74.671a60.268,60.268,0,0,0-17.849-9.889,74.475,74.475,0,0,0-20.2-3.932l.205-.773a66.194,66.194,0,0,1,20.321,3.973,64.665,64.665,0,0,1,17.756,9.836Z" fill="#ccc"/>
              <path d="M1232.319,77.3a60.228,60.228,0,0,0-17.849-9.888,74.455,74.455,0,0,0-20.195-3.933l.2-.773A66.2,66.2,0,0,1,1214.8,66.68a64.679,64.679,0,0,1,17.756,9.835Z" fill="#ccc"/>
              <path d="M1231.505,79.931a60.268,60.268,0,0,0-17.849-9.889,74.521,74.521,0,0,0-20.195-3.932l.2-.773a66.189,66.189,0,0,1,20.321,3.973,64.679,64.679,0,0,1,17.756,9.835Z" fill="#ccc"/>
              <path d="M1230.691,82.561a60.256,60.256,0,0,0-17.848-9.888,74.511,74.511,0,0,0-20.2-3.933l.205-.773a66.194,66.194,0,0,1,20.321,3.973,64.679,64.679,0,0,1,17.756,9.835Z" fill="#ccc"/>
              <path d="M1229.878,85.191a60.27,60.27,0,0,0-17.849-9.888,74.465,74.465,0,0,0-20.2-3.933l.2-.773a66.2,66.2,0,0,1,20.322,3.973,64.682,64.682,0,0,1,17.755,9.835Z" fill="#ccc"/>
              <path d="M1229.063,87.822a60.26,60.26,0,0,0-17.848-9.89,74.485,74.485,0,0,0-20.2-3.932l.2-.773a66.2,66.2,0,0,1,20.322,3.973,64.682,64.682,0,0,1,17.755,9.835Z" fill="#ccc"/>
              <path d="M1228.25,90.451a60.285,60.285,0,0,0-17.849-9.889,74.479,74.479,0,0,0-20.2-3.932l.205-.773a66.182,66.182,0,0,1,20.322,3.974,64.662,64.662,0,0,1,17.756,9.834Z" fill="#ccc"/>
              <path d="M1227.436,93.081a60.27,60.27,0,0,0-17.849-9.888,74.485,74.485,0,0,0-20.2-3.932l.2-.774a66.2,66.2,0,0,1,20.322,3.973,64.665,64.665,0,0,1,17.756,9.836Z" fill="#ccc"/>
              <path d="M1226.622,95.712a60.243,60.243,0,0,0-17.849-9.889,74.479,74.479,0,0,0-20.2-3.932l.2-.774a66.182,66.182,0,0,1,20.322,3.974,64.648,64.648,0,0,1,17.756,9.835Z" fill="#ccc"/>
              <path d="M1225.808,98.341a60.268,60.268,0,0,0-17.849-9.889,74.449,74.449,0,0,0-20.2-3.931l.2-.774a66.182,66.182,0,0,1,20.322,3.974,64.648,64.648,0,0,1,17.756,9.835Z" fill="#ccc"/>
              <path d="M1224.994,100.971a60.254,60.254,0,0,0-17.849-9.888,74.5,74.5,0,0,0-20.195-3.933l.2-.773a66.2,66.2,0,0,1,20.322,3.973,64.665,64.665,0,0,1,17.756,9.836Z" fill="#ccc"/>
              <path d="M1224.18,103.6a60.243,60.243,0,0,0-17.849-9.889,74.5,74.5,0,0,0-20.195-3.933l.2-.772a66.173,66.173,0,0,1,20.321,3.972,64.665,64.665,0,0,1,17.756,9.836Z" fill="#ccc"/>
            </g>
            <path d="M1243.88,68.646s20.09-4.429,39.158,7.635l-.19.647a52.267,52.267,0,0,0-19.374-7.512,61.241,61.241,0,0,0-19.8-.131Z" fill="#ccc"/>
            <path d="M1255.784,55.085a57.922,57.922,0,0,1,21.987,3.88l-.477,1.583a54.754,54.754,0,0,0-10.438-3.044,57.846,57.846,0,0,0-11.355-.89Z" fill="#ccc"/>
            <path d="M1258.955,58.175a57.841,57.841,0,0,1,14.6,2.707l-.439,1.621a50.73,50.73,0,0,0-7.443-1.995,59.8,59.8,0,0,0-7.087-.876Z" fill="#ccc"/>
            <path d="M1243.124,71.166s20.09-4.429,39.158,7.635l-.19.648a52.268,52.268,0,0,0-19.374-7.514,61.282,61.282,0,0,0-19.8-.131Z" fill="#ccc"/>
            <path d="M1242.368,73.686s20.09-4.429,39.157,7.635l-.19.647a52.247,52.247,0,0,0-19.373-7.513,61.264,61.264,0,0,0-19.8-.13Z" fill="#ccc"/>
            <path d="M1241.612,76.206s20.09-4.429,39.157,7.634l-.19.648a52.247,52.247,0,0,0-19.373-7.513,61.28,61.28,0,0,0-19.8-.131Z" fill="#ccc"/>
            <path d="M1240.856,78.725s20.09-4.428,39.158,7.635l-.191.648a52.258,52.258,0,0,0-19.374-7.514,61.275,61.275,0,0,0-19.8-.131Z" fill="#ccc"/>
            <path d="M1240.1,81.246s20.091-4.43,39.158,7.634l-.19.647a52.268,52.268,0,0,0-19.374-7.513,61.275,61.275,0,0,0-19.8-.131Z" fill="#ccc"/>
            <path d="M1239.343,83.765s20.091-4.429,39.159,7.634l-.191.648a52.248,52.248,0,0,0-19.374-7.513,61.292,61.292,0,0,0-19.8-.132Z" fill="#ccc"/>
            <path d="M1238.588,86.285s20.089-4.429,39.157,7.634l-.19.648a52.258,52.258,0,0,0-19.374-7.514,61.291,61.291,0,0,0-19.8-.13Z" fill="#ccc"/>
            <path d="M1237.831,88.805s20.09-4.429,39.158,7.634l-.19.647a52.268,52.268,0,0,0-19.374-7.513,61.275,61.275,0,0,0-19.8-.131Z" fill="#ccc"/>
            <path d="M1237.075,91.325s20.09-4.43,39.158,7.634l-.19.648a52.268,52.268,0,0,0-19.374-7.514,61.282,61.282,0,0,0-19.8-.131Z" fill="#ccc"/>
            <path d="M1236.319,93.844s20.09-4.429,39.158,7.634l-.191.648a52.258,52.258,0,0,0-19.373-7.514,61.3,61.3,0,0,0-19.8-.13Z" fill="#ccc"/>
            <path d="M1235.563,96.364s20.09-4.429,39.158,7.634l-.191.648a52.258,52.258,0,0,0-19.373-7.514,61.282,61.282,0,0,0-19.8-.131Z" fill="#ccc"/>
            <path d="M1234.807,98.884s20.09-4.43,39.157,7.634l-.19.648a52.258,52.258,0,0,0-19.373-7.514,61.264,61.264,0,0,0-19.8-.13Z" fill="#ccc"/>
            <path d="M1234.051,101.4s20.09-4.429,39.157,7.634l-.19.648a52.247,52.247,0,0,0-19.373-7.513,61.28,61.28,0,0,0-19.8-.131Z" fill="#ccc"/>
            <path d="M1233.279,104.151s20.09-4.429,39.157,7.634l-.19.648a52.258,52.258,0,0,0-19.374-7.514,61.308,61.308,0,0,0-19.8-.131Z" fill="#ccc"/>
          </g>
          <g>
            <path d="M178.181,27.853l52.85,17.423a7.289,7.289,0,0,1-1.691,2.711L176.6,29.922A4.576,4.576,0,0,0,178.181,27.853Z" fill="#fff"/>
            <path d="M231.583,40.042a15.058,15.058,0,0,1,.008,2.614l-52.67-17.612v-.008a11.614,11.614,0,0,0-.015-2.976L231.5,40.049Z" fill="#fff"/>
            <path d="M178.181,27.853l52.85,17.423a7.289,7.289,0,0,1-1.691,2.711L176.6,29.922A4.576,4.576,0,0,0,178.181,27.853Z" fill="#ccc"/>
            <path d="M231.583,40.042a15.058,15.058,0,0,1,.008,2.614l-52.67-17.612v-.008a11.614,11.614,0,0,0-.015-2.976L231.5,40.049Z" fill="#e6e7e8"/>
            <path d="M178.921,25.044l52.67,17.612a10.357,10.357,0,0,1-.56,2.62L191.078,32.1l-12.9-4.251A9.92,9.92,0,0,0,178.921,25.044Z" fill="#fff"/>
            <path d="M231.583,40.042l-.083.007L178.906,22.06c-.257-1.918-1.058-3.557-2.492-4.086L231,36.855A17.124,17.124,0,0,1,231.583,40.042Z" fill="#fff"/>
            <path d="M230.526,49.762c-8.761-2.84-55.888-18.812-55.888-18.812l-.234-1.776,2.2.748L229.34,47.987a7.289,7.289,0,0,0,1.691-2.711,10.357,10.357,0,0,0,.56-2.62,15.058,15.058,0,0,0-.008-2.614A17.124,17.124,0,0,0,231,36.855L176.414,17.974c-.016-.008-.031-.008-.046-.015l-1.843-.635v-2.13L232.5,35.36C234.408,40.072,233.992,46.96,230.526,49.762Z" fill="#00578a"/>
            <path d="M278.355-1.5c2.53,3.2,2.281,8.443.589,11.487-13.429,11.124-35.632,29.477-48.418,39.778,3.466-2.8,3.882-9.69,1.971-14.4Z" fill="#00578a"/>
            <polygon points="278.355 -1.503 232.497 35.36 174.525 15.194 231.236 -15.589 278.355 -1.503" fill="#235e96"/>
            <polygon points="191.294 41.556 190.849 32.484 191.078 32.104 200.495 35.209 200.191 35.758 200.116 44.775 191.294 41.556" fill="#bb426c"/>
          </g>
          <g>
            <g>
              <path d="M1048.634,91.273l-55.988,85.538a3.957,3.957,0,0,1-6.817-.33l-25.811-52.1c-1.43-2.887-1.336-7.15.21-9.473l57.394-86.234c1.546-2.323,4.4-3.355,6.265-.409L1048.845,81.8C1050.275,84.688,1050.18,88.95,1048.634,91.273Z" fill="#d1d1d2"/>
              <path d="M1050.04,90.576l-57.394,86.235c-1.545,2.322-3.981,1.861-5.411-1.026l-25.811-52.1c-1.431-2.887-1.336-7.149.21-9.472l57.394-86.234c1.546-2.323,3.981-1.861,5.411,1.026l25.812,52.1C1051.681,83.991,1051.586,88.254,1050.04,90.576Z" fill="#00578a"/>
              <polygon points="1048.903 87.191 992.06 172.598 964.084 116.129 1020.928 30.721 1048.903 87.191" fill="#e6e7e8"/>
              <path d="M1041.049,107.937,1010.6,153.694c-.365.548-.939.439-1.276-.242h0a2.488,2.488,0,0,1,.049-2.233l30.455-45.758c.364-.548.939-.439,1.276.242h0A2.49,2.49,0,0,1,1041.049,107.937Z"/>
            </g>
            <g>
              <path d="M1119.222,100.8l-54.435,83.222c-2.151,3.289-7.618,5.773-12.149,5.521l-53.278-2.968c-4.531-.253-7.35-4.384-5.2-7.673l55.308-81.987c2.151-3.289,7.618-5.773,12.149-5.521l53.3,1.461C1119.448,93.105,1121.373,97.509,1119.222,100.8Z" fill="#00578a"/>
              <path d="M1118.555,99.228,1064.12,182.45c-2.151,3.289-7.618,5.773-12.149,5.521L998.693,185c-4.53-.253-6.477-3.15-4.326-6.439L1048.8,95.343c2.151-3.289,7.618-5.774,12.149-5.521l53.278,2.968C1118.759,93.042,1120.706,95.94,1118.555,99.228Z" fill="#d1d1d2"/>
              <path d="M1100.694,120.146l-23.252,35.547a4.565,4.565,0,0,1-3.729,1.695l-11.888-.662c-1.391-.078-1.989-.967-1.328-1.977l23.251-35.547a4.57,4.57,0,0,1,3.73-1.695l11.887.663C1100.756,118.247,1101.354,119.137,1100.694,120.146Z" fill="#737373"/>
              <path d="M1100.816,124.619c-.3.459-8.941,13.669-8.941,13.669l-8.941,13.669a7.477,7.477,0,0,0-.352,2.25l20.746-31.717A22.727,22.727,0,0,0,1100.816,124.619Z" fill="#00578a"/>
              <g>
                <path d="M1023.217,162.511l-2.346,3.587a1.917,1.917,0,0,1-1.57.678l-2.875-.161c-.6-.033-1.05-.632-.784-1.038l2.526-3.347a1.918,1.918,0,0,1,1.57-.678l2.909-.139A.719.719,0,0,1,1023.217,162.511Z"/>
                <path d="M1023.073,162.205l-2.328,3.56a1.869,1.869,0,0,1-1.527.694l-2.978-.166c-.57-.031-.814-.4-.544-.809l2.329-3.56a1.869,1.869,0,0,1,1.527-.694l2.977.166C1023.1,161.428,1023.344,161.792,1023.073,162.205Z" fill="#404040"/>
              </g>
              <g>
                <path d="M1027.146,156.505l-2.346,3.586a1.917,1.917,0,0,1-1.57.678l-2.875-.16c-.6-.034-1.05-.632-.784-1.039l2.526-3.347a1.918,1.918,0,0,1,1.57-.678l2.909-.139A.72.72,0,0,1,1027.146,156.505Z"/>
                <path d="M1027,156.2l-2.328,3.56a1.874,1.874,0,0,1-1.527.694l-2.978-.166c-.57-.032-.814-.4-.544-.81l2.329-3.56a1.872,1.872,0,0,1,1.527-.694l2.977.166C1027.028,155.421,1027.273,155.785,1027,156.2Z" fill="#404040"/>
              </g>
              <g>
                <path d="M1031.075,150.5l-2.346,3.586a1.917,1.917,0,0,1-1.57.678l-2.875-.16c-.6-.033-1.05-.632-.784-1.038l2.526-3.347a1.912,1.912,0,0,1,1.57-.678l2.909-.14A.72.72,0,0,1,1031.075,150.5Z"/>
                <path d="M1030.931,150.192l-2.328,3.56a1.874,1.874,0,0,1-1.527.694l-2.978-.166c-.57-.032-.814-.4-.544-.809l2.329-3.56a1.866,1.866,0,0,1,1.527-.694l2.977.166C1030.957,149.414,1031.2,149.778,1030.931,150.192Z" fill="#404040"/>
              </g>
              <g>
                <path d="M1035,144.491l-2.346,3.586a1.914,1.914,0,0,1-1.57.678l-2.875-.16c-.6-.033-1.05-.632-.784-1.038l2.526-3.347a1.92,1.92,0,0,1,1.57-.678l2.909-.14A.72.72,0,0,1,1035,144.491Z"/>
                <path d="M1034.86,144.185l-2.328,3.56a1.871,1.871,0,0,1-1.527.694l-2.978-.166c-.57-.032-.814-.4-.544-.809l2.329-3.56a1.866,1.866,0,0,1,1.527-.694l2.977.166C1034.886,143.407,1035.131,143.772,1034.86,144.185Z" fill="#404040"/>
              </g>
              <g>
                <path d="M1038.933,138.484l-2.346,3.586a1.911,1.911,0,0,1-1.57.678l-2.875-.16c-.6-.033-1.05-.632-.784-1.038l2.526-3.347a1.92,1.92,0,0,1,1.57-.678l2.909-.139A.719.719,0,0,1,1038.933,138.484Z"/>
                <path d="M1038.789,138.178l-2.328,3.56a1.869,1.869,0,0,1-1.527.694l-2.978-.166c-.57-.031-.814-.4-.544-.809l2.329-3.56a1.869,1.869,0,0,1,1.527-.694l2.977.166C1038.815,137.4,1039.06,137.765,1038.789,138.178Z" fill="#404040"/>
              </g>
              <g>
                <path d="M1042.862,132.478l-2.346,3.586a1.916,1.916,0,0,1-1.569.678l-2.876-.16c-.6-.034-1.05-.632-.784-1.039l2.526-3.347a1.92,1.92,0,0,1,1.57-.678l2.909-.139A.72.72,0,0,1,1042.862,132.478Z"/>
                <path d="M1042.718,132.172l-2.328,3.559a1.869,1.869,0,0,1-1.527.694l-2.978-.165c-.57-.032-.814-.4-.544-.81l2.329-3.56a1.872,1.872,0,0,1,1.527-.694l2.977.166C1042.744,131.394,1042.989,131.758,1042.718,132.172Z" fill="#404040"/>
              </g>
              <g>
                <path d="M1046.791,126.471l-2.346,3.586a1.916,1.916,0,0,1-1.569.678l-2.876-.16c-.6-.034-1.05-.632-.784-1.038l2.526-3.347a1.914,1.914,0,0,1,1.57-.678l2.909-.14A.72.72,0,0,1,1046.791,126.471Z"/>
                <path d="M1046.647,126.165l-2.328,3.56a1.874,1.874,0,0,1-1.527.694l-2.978-.166c-.569-.032-.814-.4-.544-.81l2.329-3.559a1.866,1.866,0,0,1,1.527-.694l2.977.165C1046.673,125.387,1046.918,125.751,1046.647,126.165Z" fill="#404040"/>
              </g>
              <g>
                <path d="M1050.72,120.464l-2.346,3.586a1.916,1.916,0,0,1-1.569.678l-2.876-.16c-.6-.033-1.05-.632-.784-1.038l2.526-3.347a1.917,1.917,0,0,1,1.57-.678l2.909-.14A.72.72,0,0,1,1050.72,120.464Z"/>
                <path d="M1050.576,120.158l-2.328,3.56a1.871,1.871,0,0,1-1.527.694l-2.978-.166c-.569-.032-.814-.4-.544-.809l2.329-3.56a1.866,1.866,0,0,1,1.527-.694l2.978.166C1050.6,119.38,1050.847,119.745,1050.576,120.158Z" fill="#404040"/>
              </g>
              <g>
                <path d="M1054.649,114.457l-2.346,3.586a1.91,1.91,0,0,1-1.569.678l-2.875-.16c-.6-.033-1.051-.632-.785-1.038l2.526-3.347a1.92,1.92,0,0,1,1.57-.678l2.909-.14A.72.72,0,0,1,1054.649,114.457Z"/>
                <path d="M1054.505,114.151l-2.328,3.56a1.867,1.867,0,0,1-1.527.694l-2.978-.166c-.569-.032-.814-.4-.544-.809l2.329-3.56a1.869,1.869,0,0,1,1.527-.694l2.978.166C1054.531,113.374,1054.776,113.738,1054.505,114.151Z" fill="#404040"/>
              </g>
              <g>
                <path d="M1058.578,108.45l-2.345,3.587a1.92,1.92,0,0,1-1.57.678l-2.875-.161c-.6-.033-1.05-.632-.785-1.038l2.526-3.347a1.92,1.92,0,0,1,1.57-.678l2.909-.139A.719.719,0,0,1,1058.578,108.45Z"/>
                <path d="M1058.434,108.144l-2.328,3.56a1.867,1.867,0,0,1-1.527.694l-2.978-.166c-.569-.031-.814-.395-.544-.809l2.329-3.56a1.872,1.872,0,0,1,1.527-.694l2.978.166C1058.46,107.367,1058.705,107.731,1058.434,108.144Z" fill="#404040"/>
              </g>
              <g>
                <path d="M1062.507,102.444l-2.345,3.586a1.92,1.92,0,0,1-1.57.678l-2.875-.16c-.6-.034-1.05-.632-.785-1.039l2.526-3.347a1.92,1.92,0,0,1,1.57-.678l2.909-.139A.72.72,0,0,1,1062.507,102.444Z"/>
                <path d="M1062.363,102.138l-2.328,3.56a1.873,1.873,0,0,1-1.527.694l-2.978-.166c-.569-.032-.814-.4-.544-.81l2.329-3.56a1.872,1.872,0,0,1,1.527-.694l2.978.166C1062.389,101.36,1062.634,101.724,1062.363,102.138Z" fill="#404040"/>
              </g>
              <g>
                <path d="M1073.781,95.3l-2.346,3.586a1.917,1.917,0,0,1-1.57.678l-2.875-.16c-.6-.034-1.05-.632-.784-1.039l2.526-3.347a1.92,1.92,0,0,1,1.57-.678l2.909-.139A.72.72,0,0,1,1073.781,95.3Z"/>
                <path d="M1073.637,94.99l-2.328,3.56a1.874,1.874,0,0,1-1.527.694l-2.978-.166c-.57-.032-.814-.4-.544-.81l2.329-3.56a1.872,1.872,0,0,1,1.527-.694l2.977.166C1073.663,94.212,1073.908,94.576,1073.637,94.99Z" fill="#404040"/>
              </g>
              <g>
                <path d="M1026.849,167.147l-2.346,3.586a1.918,1.918,0,0,1-1.57.678l-2.875-.16c-.6-.034-1.05-.632-.784-1.038l2.526-3.347a1.916,1.916,0,0,1,1.57-.679l2.908-.139A.721.721,0,0,1,1026.849,167.147Z"/>
                <path d="M1026.705,166.841l-2.329,3.56a1.872,1.872,0,0,1-1.527.694l-2.977-.166c-.57-.032-.815-.4-.544-.81l2.328-3.559a1.869,1.869,0,0,1,1.527-.694l2.978.165C1026.731,166.063,1026.975,166.427,1026.705,166.841Z" fill="#404040"/>
              </g>
              <g>
                <path d="M1030.778,161.14l-2.346,3.586a1.918,1.918,0,0,1-1.57.678l-2.875-.16c-.6-.033-1.05-.632-.784-1.038l2.526-3.347a1.915,1.915,0,0,1,1.57-.678l2.908-.14A.721.721,0,0,1,1030.778,161.14Z"/>
                <path d="M1030.634,160.834l-2.329,3.56a1.869,1.869,0,0,1-1.527.694l-2.977-.166c-.57-.032-.815-.4-.544-.809l2.328-3.56a1.869,1.869,0,0,1,1.527-.694l2.978.166C1030.66,160.056,1030.9,160.421,1030.634,160.834Z" fill="#404040"/>
              </g>
              <g>
                <path d="M1034.707,155.133l-2.346,3.586a1.912,1.912,0,0,1-1.57.678l-2.875-.16c-.6-.033-1.05-.632-.784-1.038l2.526-3.347a1.918,1.918,0,0,1,1.57-.678l2.908-.14A.721.721,0,0,1,1034.707,155.133Z"/>
                <path d="M1034.563,154.827l-2.329,3.56a1.866,1.866,0,0,1-1.527.694l-2.977-.166c-.57-.032-.815-.4-.544-.809l2.328-3.56a1.871,1.871,0,0,1,1.527-.694l2.978.166C1034.589,154.05,1034.833,154.414,1034.563,154.827Z" fill="#404040"/>
              </g>
              <g>
                <path d="M1038.636,149.126l-2.346,3.587a1.918,1.918,0,0,1-1.57.678l-2.875-.161c-.6-.033-1.05-.632-.784-1.038l2.526-3.347a1.918,1.918,0,0,1,1.57-.678l2.909-.139A.72.72,0,0,1,1038.636,149.126Z"/>
                <path d="M1038.492,148.82l-2.329,3.56a1.866,1.866,0,0,1-1.527.694l-2.977-.166c-.57-.031-.815-.4-.544-.809l2.328-3.56a1.874,1.874,0,0,1,1.527-.694l2.978.166C1038.518,148.043,1038.762,148.407,1038.492,148.82Z" fill="#404040"/>
              </g>
              <g>
                <path d="M1042.565,143.12l-2.346,3.586a1.918,1.918,0,0,1-1.57.678l-2.875-.16c-.6-.034-1.05-.632-.784-1.039l2.526-3.347a1.918,1.918,0,0,1,1.57-.678l2.909-.139A.72.72,0,0,1,1042.565,143.12Z"/>
                <path d="M1042.421,142.814l-2.329,3.56a1.872,1.872,0,0,1-1.527.694l-2.977-.166c-.57-.032-.815-.4-.544-.81l2.328-3.56a1.875,1.875,0,0,1,1.528-.694l2.977.166C1042.447,142.036,1042.691,142.4,1042.421,142.814Z" fill="#404040"/>
              </g>
              <g>
                <path d="M1046.494,137.113l-2.346,3.586a1.918,1.918,0,0,1-1.57.678l-2.875-.16c-.6-.033-1.05-.632-.784-1.038l2.526-3.347a1.912,1.912,0,0,1,1.57-.678l2.909-.14A.721.721,0,0,1,1046.494,137.113Z"/>
                <path d="M1046.35,136.807l-2.329,3.56a1.869,1.869,0,0,1-1.527.694l-2.977-.166c-.57-.032-.815-.4-.544-.809l2.328-3.56a1.869,1.869,0,0,1,1.528-.694l2.977.166C1046.376,136.029,1046.62,136.394,1046.35,136.807Z" fill="#404040"/>
              </g>
              <g>
                <path d="M1050.423,131.106l-2.346,3.586a1.915,1.915,0,0,1-1.57.678l-2.875-.16c-.6-.033-1.05-.632-.784-1.038l2.526-3.347a1.918,1.918,0,0,1,1.57-.678l2.909-.14A.721.721,0,0,1,1050.423,131.106Z"/>
                <path d="M1050.279,130.8l-2.328,3.56a1.872,1.872,0,0,1-1.528.694l-2.977-.166c-.57-.032-.815-.4-.544-.809l2.328-3.56a1.869,1.869,0,0,1,1.528-.694l2.977.166C1050.305,130.023,1050.549,130.387,1050.279,130.8Z" fill="#404040"/>
              </g>
              <g>
                <path d="M1054.352,125.1l-2.346,3.586a1.912,1.912,0,0,1-1.57.678l-2.875-.16c-.6-.033-1.05-.632-.784-1.038l2.526-3.347a1.918,1.918,0,0,1,1.57-.678l2.909-.139A.72.72,0,0,1,1054.352,125.1Z"/>
                <path d="M1054.208,124.793l-2.328,3.56a1.869,1.869,0,0,1-1.528.694l-2.977-.166c-.57-.031-.815-.4-.544-.809l2.328-3.56a1.872,1.872,0,0,1,1.528-.694l2.977.166C1054.234,124.016,1054.478,124.38,1054.208,124.793Z" fill="#404040"/>
              </g>
              <g>
                <path d="M1058.281,119.093l-2.346,3.586a1.918,1.918,0,0,1-1.57.678l-2.875-.16c-.6-.034-1.05-.632-.784-1.039l2.526-3.347a1.918,1.918,0,0,1,1.57-.678l2.909-.139A.72.72,0,0,1,1058.281,119.093Z"/>
                <path d="M1058.137,118.787l-2.328,3.559a1.869,1.869,0,0,1-1.528.694l-2.977-.165c-.57-.032-.815-.4-.544-.81l2.328-3.56a1.875,1.875,0,0,1,1.528-.694l2.977.166C1058.163,118.009,1058.407,118.373,1058.137,118.787Z" fill="#404040"/>
              </g>
              <g>
                <path d="M1062.21,113.086l-2.346,3.586a1.918,1.918,0,0,1-1.57.678l-2.875-.16c-.6-.034-1.05-.632-.784-1.038l2.526-3.347a1.912,1.912,0,0,1,1.57-.678l2.909-.14A.721.721,0,0,1,1062.21,113.086Z"/>
                <path d="M1062.066,112.78l-2.328,3.56a1.875,1.875,0,0,1-1.528.694l-2.977-.166c-.57-.032-.815-.4-.544-.81l2.328-3.559a1.869,1.869,0,0,1,1.528-.694l2.977.165C1062.092,112,1062.336,112.366,1062.066,112.78Z" fill="#404040"/>
              </g>
              <g>
                <path d="M1066.139,107.079l-2.346,3.586a1.918,1.918,0,0,1-1.57.678l-2.875-.16c-.6-.033-1.05-.632-.784-1.038l2.526-3.347a1.915,1.915,0,0,1,1.57-.678l2.909-.14A.72.72,0,0,1,1066.139,107.079Z"/>
                <path d="M1065.995,106.773l-2.328,3.56a1.872,1.872,0,0,1-1.528.694l-2.977-.166c-.57-.032-.815-.4-.544-.809l2.328-3.56a1.869,1.869,0,0,1,1.528-.694l2.977.166C1066.021,106,1066.265,106.36,1065.995,106.773Z" fill="#404040"/>
              </g>
              <g>
                <path d="M1034.617,165.458l-2.346,3.586a1.917,1.917,0,0,1-1.57.678l-2.875-.16c-.6-.034-1.05-.632-.784-1.038l2.526-3.348a1.915,1.915,0,0,1,1.57-.677l2.909-.14A.72.72,0,0,1,1034.617,165.458Z"/>
                <path d="M1034.473,165.152l-2.328,3.56a1.874,1.874,0,0,1-1.527.694l-2.978-.166c-.57-.032-.814-.4-.544-.81l2.329-3.559a1.866,1.866,0,0,1,1.527-.694l2.977.165C1034.5,164.374,1034.744,164.738,1034.473,165.152Z" fill="#404040"/>
              </g>
              <g>
                <path d="M1038.546,159.451l-2.346,3.586a1.917,1.917,0,0,1-1.57.678l-2.875-.16c-.6-.033-1.05-.632-.784-1.038l2.526-3.347a1.915,1.915,0,0,1,1.57-.678l2.909-.14A.72.72,0,0,1,1038.546,159.451Z"/>
                <path d="M1038.4,159.145l-2.328,3.56a1.871,1.871,0,0,1-1.527.694l-2.978-.166c-.57-.032-.814-.4-.544-.809l2.329-3.56a1.866,1.866,0,0,1,1.527-.694l2.977.166C1038.428,158.367,1038.673,158.732,1038.4,159.145Z" fill="#404040"/>
              </g>
              <g>
                <path d="M1042.475,153.444l-2.346,3.586a1.911,1.911,0,0,1-1.57.678l-2.875-.16c-.6-.033-1.05-.632-.784-1.038l2.526-3.347a1.918,1.918,0,0,1,1.57-.678l2.909-.14A.72.72,0,0,1,1042.475,153.444Z"/>
                <path d="M1042.331,153.138,1040,156.7a1.869,1.869,0,0,1-1.527.694l-2.978-.166c-.57-.031-.814-.4-.544-.809l2.329-3.56a1.869,1.869,0,0,1,1.527-.694l2.977.166C1042.357,152.361,1042.6,152.725,1042.331,153.138Z" fill="#404040"/>
              </g>
              <g>
                <path d="M1046.4,147.437l-2.346,3.587a1.917,1.917,0,0,1-1.57.678l-2.875-.161c-.6-.033-1.05-.632-.784-1.038l2.526-3.347a1.92,1.92,0,0,1,1.57-.678l2.909-.139A.719.719,0,0,1,1046.4,147.437Z"/>
                <path d="M1046.26,147.131l-2.328,3.56a1.869,1.869,0,0,1-1.527.694l-2.978-.166c-.57-.031-.814-.395-.544-.809l2.329-3.56a1.872,1.872,0,0,1,1.527-.694l2.977.166C1046.286,146.354,1046.531,146.718,1046.26,147.131Z" fill="#404040"/>
              </g>
              <g>
                <path d="M1050.333,141.431l-2.346,3.586a1.917,1.917,0,0,1-1.57.678l-2.875-.16c-.6-.034-1.05-.632-.784-1.039l2.526-3.347a1.92,1.92,0,0,1,1.57-.678l2.909-.139A.72.72,0,0,1,1050.333,141.431Z"/>
                <path d="M1050.189,141.125l-2.328,3.56a1.874,1.874,0,0,1-1.527.694l-2.978-.166c-.57-.032-.814-.4-.544-.81l2.329-3.56a1.872,1.872,0,0,1,1.527-.694l2.977.166C1050.215,140.347,1050.46,140.711,1050.189,141.125Z" fill="#404040"/>
              </g>
              <g>
                <path d="M1054.262,135.424l-2.346,3.586a1.916,1.916,0,0,1-1.569.678l-2.876-.16c-.6-.033-1.05-.632-.784-1.038l2.526-3.347a1.914,1.914,0,0,1,1.57-.678l2.909-.14A.72.72,0,0,1,1054.262,135.424Z"/>
                <path d="M1054.118,135.118l-2.328,3.56a1.871,1.871,0,0,1-1.527.694l-2.978-.166c-.57-.032-.814-.4-.544-.809l2.329-3.56a1.866,1.866,0,0,1,1.527-.694l2.977.166C1054.144,134.34,1054.389,134.705,1054.118,135.118Z" fill="#404040"/>
              </g>
              <g>
                <path d="M1058.191,129.417,1055.845,133a1.913,1.913,0,0,1-1.569.678l-2.876-.16c-.6-.033-1.05-.632-.784-1.038l2.526-3.347a1.92,1.92,0,0,1,1.57-.678l2.909-.14A.72.72,0,0,1,1058.191,129.417Z"/>
                <path d="M1058.047,129.111l-2.328,3.56a1.871,1.871,0,0,1-1.527.694l-2.978-.166c-.569-.032-.814-.4-.544-.809l2.329-3.56a1.869,1.869,0,0,1,1.527-.694l2.978.166C1058.073,128.334,1058.318,128.7,1058.047,129.111Z" fill="#404040"/>
              </g>
              <g>
                <path d="M1062.12,123.41,1059.774,127a1.91,1.91,0,0,1-1.569.678l-2.875-.16c-.6-.033-1.051-.632-.785-1.038l2.526-3.347a1.92,1.92,0,0,1,1.57-.678l2.909-.139A.719.719,0,0,1,1062.12,123.41Z"/>
                <path d="M1061.976,123.1l-2.328,3.56a1.869,1.869,0,0,1-1.527.694l-2.978-.166c-.569-.031-.814-.4-.544-.809l2.329-3.56a1.869,1.869,0,0,1,1.527-.694l2.978.166C1062,122.327,1062.247,122.691,1061.976,123.1Z" fill="#404040"/>
              </g>
              <g>
                <path d="M1066.049,117.4l-2.346,3.586a1.916,1.916,0,0,1-1.569.678l-2.875-.16c-.6-.034-1.051-.632-.785-1.039l2.526-3.347a1.92,1.92,0,0,1,1.57-.678l2.909-.139A.72.72,0,0,1,1066.049,117.4Z"/>
                <path d="M1065.905,117.1l-2.328,3.559a1.869,1.869,0,0,1-1.527.694l-2.978-.165c-.569-.032-.814-.4-.544-.81l2.329-3.56a1.872,1.872,0,0,1,1.527-.694l2.978.166C1065.931,116.32,1066.176,116.684,1065.905,117.1Z" fill="#404040"/>
              </g>
              <g>
                <path d="M1069.978,111.4l-2.346,3.586a1.916,1.916,0,0,1-1.569.678l-2.875-.16c-.6-.034-1.051-.632-.785-1.038l2.526-3.347a1.914,1.914,0,0,1,1.57-.678l2.909-.14A.72.72,0,0,1,1069.978,111.4Z"/>
                <path d="M1069.834,111.091l-2.328,3.56a1.873,1.873,0,0,1-1.527.694l-2.978-.166c-.569-.032-.814-.4-.544-.81l2.329-3.559a1.866,1.866,0,0,1,1.527-.694l2.978.165C1069.86,110.313,1070.105,110.677,1069.834,111.091Z" fill="#404040"/>
              </g>
              <g>
                <path d="M1042.544,162.725l-2.345,3.586a1.918,1.918,0,0,1-1.57.678l-2.875-.16c-.6-.033-1.05-.632-.784-1.038l2.526-3.347a1.914,1.914,0,0,1,1.57-.678l2.908-.14A.72.72,0,0,1,1042.544,162.725Z"/>
                <path d="M1042.4,162.419l-2.329,3.56a1.869,1.869,0,0,1-1.527.694l-2.978-.166c-.569-.032-.814-.4-.543-.809l2.328-3.56a1.867,1.867,0,0,1,1.527-.694l2.978.166C1042.426,161.641,1042.671,162.006,1042.4,162.419Z" fill="#404040"/>
              </g>
              <g>
                <path d="M1046.474,156.718l-2.346,3.586a1.912,1.912,0,0,1-1.57.678l-2.875-.16c-.6-.033-1.05-.632-.784-1.038l2.526-3.347a1.918,1.918,0,0,1,1.57-.678l2.908-.14A.721.721,0,0,1,1046.474,156.718Z"/>
                <path d="M1046.33,156.412l-2.329,3.56a1.866,1.866,0,0,1-1.527.694l-2.978-.166c-.569-.031-.814-.4-.543-.809l2.328-3.56a1.871,1.871,0,0,1,1.527-.694l2.978.166C1046.355,155.635,1046.6,156,1046.33,156.412Z" fill="#404040"/>
              </g>
              <g>
                <path d="M1050.4,150.712l-2.346,3.586a1.918,1.918,0,0,1-1.57.678l-2.875-.161c-.6-.033-1.05-.631-.784-1.038l2.526-3.347a1.918,1.918,0,0,1,1.57-.678l2.908-.139A.72.72,0,0,1,1050.4,150.712Z"/>
                <path d="M1050.259,150.406l-2.329,3.559a1.866,1.866,0,0,1-1.527.694l-2.978-.165c-.569-.032-.814-.4-.543-.81l2.328-3.56a1.874,1.874,0,0,1,1.527-.694l2.978.166C1050.284,149.628,1050.529,149.992,1050.259,150.406Z" fill="#404040"/>
              </g>
              <g>
                <path d="M1054.332,144.705l-2.346,3.586a1.918,1.918,0,0,1-1.57.678l-2.875-.16c-.6-.034-1.05-.632-.784-1.038l2.526-3.348a1.918,1.918,0,0,1,1.57-.678l2.908-.139A.721.721,0,0,1,1054.332,144.705Z"/>
                <path d="M1054.188,144.4l-2.329,3.56a1.872,1.872,0,0,1-1.527.694l-2.977-.166c-.57-.032-.815-.4-.544-.81l2.328-3.559a1.869,1.869,0,0,1,1.527-.694l2.978.165C1054.214,143.621,1054.458,143.985,1054.188,144.4Z" fill="#404040"/>
              </g>
              <g>
                <path d="M1058.261,138.7l-2.346,3.586a1.918,1.918,0,0,1-1.57.678l-2.875-.16c-.6-.033-1.05-.632-.784-1.038l2.526-3.347a1.912,1.912,0,0,1,1.57-.678l2.908-.14A.721.721,0,0,1,1058.261,138.7Z"/>
                <path d="M1058.117,138.392l-2.329,3.56a1.869,1.869,0,0,1-1.527.694l-2.977-.166c-.57-.032-.815-.4-.544-.809l2.328-3.56a1.869,1.869,0,0,1,1.527-.694l2.978.166C1058.143,137.614,1058.387,137.979,1058.117,138.392Z" fill="#404040"/>
              </g>
              <g>
                <path d="M1062.19,132.691l-2.346,3.586a1.915,1.915,0,0,1-1.57.678l-2.875-.16c-.6-.033-1.05-.632-.784-1.038l2.526-3.347a1.918,1.918,0,0,1,1.57-.678l2.908-.14A.721.721,0,0,1,1062.19,132.691Z"/>
                <path d="M1062.046,132.385l-2.329,3.56a1.869,1.869,0,0,1-1.527.694l-2.977-.166c-.57-.032-.815-.4-.544-.809L1057,132.1a1.871,1.871,0,0,1,1.527-.694l2.978.166C1062.072,131.608,1062.316,131.972,1062.046,132.385Z" fill="#404040"/>
              </g>
              <g>
                <path d="M1066.119,126.684l-2.346,3.587a1.918,1.918,0,0,1-1.57.678l-2.875-.161c-.6-.033-1.05-.632-.784-1.038l2.526-3.347a1.918,1.918,0,0,1,1.57-.678l2.908-.139A.72.72,0,0,1,1066.119,126.684Z"/>
                <path d="M1065.975,126.378l-2.329,3.56a1.866,1.866,0,0,1-1.527.694l-2.977-.166c-.57-.031-.815-.4-.544-.809l2.328-3.56a1.871,1.871,0,0,1,1.527-.694l2.978.166C1066,125.6,1066.245,125.965,1065.975,126.378Z" fill="#404040"/>
              </g>
              <g>
                <path d="M1070.048,120.678l-2.346,3.586a1.918,1.918,0,0,1-1.57.678l-2.875-.16c-.6-.034-1.05-.632-.784-1.039L1065,120.4a1.918,1.918,0,0,1,1.57-.678l2.908-.139A.72.72,0,0,1,1070.048,120.678Z"/>
                <path d="M1069.9,120.372l-2.329,3.56a1.872,1.872,0,0,1-1.527.694l-2.977-.166c-.57-.032-.815-.4-.544-.81l2.328-3.56a1.874,1.874,0,0,1,1.527-.694l2.978.166C1069.93,119.594,1070.174,119.958,1069.9,120.372Z" fill="#404040"/>
              </g>
              <g>
                <path d="M1073.977,114.671l-2.346,3.586a1.918,1.918,0,0,1-1.57.678l-2.875-.16c-.6-.033-1.05-.632-.784-1.038l2.526-3.347a1.912,1.912,0,0,1,1.57-.678l2.908-.14A.721.721,0,0,1,1073.977,114.671Z"/>
                <path d="M1073.833,114.365l-2.329,3.56a1.869,1.869,0,0,1-1.527.694l-2.977-.166c-.57-.032-.815-.4-.544-.81l2.328-3.559a1.869,1.869,0,0,1,1.527-.694l2.978.166C1073.859,113.587,1074.1,113.951,1073.833,114.365Z" fill="#404040"/>
              </g>
              <g>
                <path d="M1077.906,108.664l-2.346,3.586a1.915,1.915,0,0,1-1.57.678l-2.875-.16c-.6-.033-1.05-.632-.784-1.038l2.526-3.347a1.918,1.918,0,0,1,1.57-.678l2.909-.14A.721.721,0,0,1,1077.906,108.664Z"/>
                <path d="M1077.762,108.358l-2.329,3.56a1.869,1.869,0,0,1-1.527.694l-2.977-.166c-.57-.032-.815-.4-.544-.809l2.328-3.56a1.869,1.869,0,0,1,1.527-.694l2.978.166C1077.788,107.58,1078.032,107.945,1077.762,108.358Z" fill="#404040"/>
              </g>
              <g>
                <path d="M1073.907,105.39l-2.345,3.586a1.92,1.92,0,0,1-1.57.678l-2.875-.16c-.6-.033-1.05-.632-.785-1.038l2.526-3.347a1.917,1.917,0,0,1,1.57-.678l2.909-.14A.72.72,0,0,1,1073.907,105.39Z"/>
                <path d="M1073.763,105.084l-2.328,3.56a1.87,1.87,0,0,1-1.527.694l-2.978-.166c-.569-.032-.814-.4-.544-.809l2.329-3.56a1.866,1.866,0,0,1,1.527-.694l2.978.166C1073.789,104.306,1074.034,104.671,1073.763,105.084Z" fill="#404040"/>
              </g>
              <g>
                <path d="M1070.068,101.072l-2.346,3.586a1.912,1.912,0,0,1-1.57.678l-2.875-.16c-.6-.033-1.05-.632-.784-1.038l2.526-3.347a1.918,1.918,0,0,1,1.57-.678l2.909-.14A.72.72,0,0,1,1070.068,101.072Z"/>
                <path d="M1069.924,100.766l-2.328,3.56a1.869,1.869,0,0,1-1.528.694l-2.977-.166c-.57-.031-.814-.4-.544-.809l2.328-3.56a1.872,1.872,0,0,1,1.528-.694l2.977.166C1069.95,99.989,1070.2,100.353,1069.924,100.766Z" fill="#404040"/>
              </g>
              <g>
                <path d="M1067.4,95.108l-3.029,4.631a2.14,2.14,0,0,1-1.711.893l-2.875-.16c-.6-.033-1.313-.5-.97-1.028l3.536-4.617a2.142,2.142,0,0,1,1.711-.894l3.017-.026C1067.672,93.94,1067.738,94.583,1067.4,95.108Z"/>
                <path d="M1067.233,94.567l-3.294,5.036a1.87,1.87,0,0,1-1.527.694l-2.978-.166c-.569-.032-.814-.4-.544-.809l3.294-5.036a1.869,1.869,0,0,1,1.527-.694l2.978.166C1067.259,93.789,1067.5,94.154,1067.233,94.567Z" fill="#404040"/>
              </g>
              <g>
                <path d="M1079.681,96.226l-3.8,5.81a2.47,2.47,0,0,1-1.869,1.136l-2.875-.16c-.6-.034-1.154-.484-.724-1.142l4.22-5.925a2.465,2.465,0,0,1,1.869-1.136l3.218-.093C1080.317,94.749,1080.112,95.568,1079.681,96.226Z"/>
                <path d="M1079.844,95.452l-4.382,6.7a1.869,1.869,0,0,1-1.528.694l-2.977-.165c-.57-.032-.814-.4-.544-.81l4.382-6.7a1.874,1.874,0,0,1,1.527-.694l2.978.166C1079.87,94.674,1080.114,95.038,1079.844,95.452Z" fill="#404040"/>
              </g>
              <g>
                <path d="M1085.736,96.7l-4.972,7.6a3.08,3.08,0,0,1-2.111,1.5l-2.875-.16c-.6-.034-1.355-.156-.792-1.017l5.7-8.21a3.08,3.08,0,0,1,2.111-1.5l3.208-.141C1087.059,94.829,1086.3,95.836,1085.736,96.7Z"/>
                <path d="M1086.138,95.557l-6.037,9.228a1.869,1.869,0,0,1-1.527.694l-2.977-.166c-.57-.032-.815-.4-.544-.809l6.036-9.229a1.873,1.873,0,0,1,1.527-.694l2.978.166C1086.163,94.779,1086.408,95.143,1086.138,95.557Z" fill="#404040"/>
              </g>
              <g>
                <path d="M1012.823,167.957l-2.387,3.65a1.727,1.727,0,0,1-1.389.7l-2.372-.132a.69.69,0,0,1-.526-1.041l2.508-3.41a1.726,1.726,0,0,1,1.389-.7l2.436-.171C1012.976,166.879,1013.093,167.543,1012.823,167.957Z"/>
                <path d="M1012.749,167.636l-2.387,3.65a1.873,1.873,0,0,1-1.527.694l-2.1-.117c-.57-.032-.814-.4-.544-.81l2.387-3.649a1.869,1.869,0,0,1,1.528-.694l2.1.116C1012.775,166.858,1013.02,167.222,1012.749,167.636Z" fill="#404040"/>
              </g>
              <g>
                <path d="M1016.826,161.838l-2.388,3.65a1.724,1.724,0,0,1-1.388.7l-2.373-.132a.691.691,0,0,1-.526-1.041l2.509-3.41a1.722,1.722,0,0,1,1.388-.7l2.437-.171C1016.978,160.76,1017.1,161.424,1016.826,161.838Z"/>
                <path d="M1016.752,161.517l-2.388,3.649a1.866,1.866,0,0,1-1.527.694l-2.1-.116c-.569-.032-.814-.4-.543-.81l2.387-3.649a1.867,1.867,0,0,1,1.527-.694l2.095.116C1016.778,160.739,1017.022,161.1,1016.752,161.517Z" fill="#404040"/>
              </g>
              <g>
                <path d="M1020.828,155.719l-2.387,3.65a1.727,1.727,0,0,1-1.389.7l-2.372-.132a.69.69,0,0,1-.526-1.041l2.508-3.41a1.722,1.722,0,0,1,1.389-.7l2.436-.171C1020.98,154.641,1021.1,155.305,1020.828,155.719Z"/>
                <path d="M1020.754,155.4l-2.387,3.649a1.867,1.867,0,0,1-1.527.694l-2.1-.116c-.57-.032-.814-.4-.544-.81l2.387-3.65a1.875,1.875,0,0,1,1.528-.694l2.094.117C1020.78,154.62,1021.025,154.984,1020.754,155.4Z" fill="#404040"/>
              </g>
              <g>
                <path d="M1024.83,149.6l-2.387,3.65a1.724,1.724,0,0,1-1.388.7l-2.373-.132a.691.691,0,0,1-.526-1.041l2.509-3.41a1.722,1.722,0,0,1,1.388-.7l2.437-.171C1024.983,148.522,1025.1,149.186,1024.83,149.6Z"/>
                <path d="M1024.757,149.278l-2.388,3.65a1.866,1.866,0,0,1-1.527.694l-2.1-.116c-.569-.032-.814-.4-.543-.81l2.387-3.65a1.873,1.873,0,0,1,1.527-.694l2.095.117C1024.783,148.5,1025.027,148.865,1024.757,149.278Z" fill="#404040"/>
              </g>
              <g>
                <path d="M1028.833,143.481l-2.387,3.649a1.725,1.725,0,0,1-1.389.7l-2.372-.132a.691.691,0,0,1-.527-1.041l2.509-3.411a1.724,1.724,0,0,1,1.389-.7l2.436-.171C1028.985,142.4,1029.1,143.067,1028.833,143.481Z"/>
                <path d="M1028.759,143.159l-2.387,3.65a1.869,1.869,0,0,1-1.527.694l-2.1-.116c-.57-.032-.814-.4-.544-.81l2.387-3.65a1.875,1.875,0,0,1,1.528-.694l2.094.117C1028.785,142.382,1029.03,142.746,1028.759,143.159Z" fill="#404040"/>
              </g>
              <g>
                <path d="M1032.835,137.361l-2.387,3.65a1.722,1.722,0,0,1-1.388.7l-2.373-.132a.691.691,0,0,1-.526-1.042l2.509-3.41a1.724,1.724,0,0,1,1.388-.7l2.437-.172C1032.988,136.284,1033.106,136.948,1032.835,137.361Z"/>
                <path d="M1032.762,137.04l-2.388,3.65a1.866,1.866,0,0,1-1.527.694l-2.1-.117c-.569-.031-.814-.395-.544-.809l2.388-3.65a1.87,1.87,0,0,1,1.527-.694l2.1.117C1032.787,136.263,1033.032,136.627,1032.762,137.04Z" fill="#404040"/>
              </g>
              <g>
                <path d="M1036.838,131.242l-2.388,3.65a1.722,1.722,0,0,1-1.388.7l-2.372-.132a.691.691,0,0,1-.527-1.042l2.509-3.41a1.724,1.724,0,0,1,1.388-.7l2.437-.172C1036.99,130.165,1037.108,130.829,1036.838,131.242Z"/>
                <path d="M1036.764,130.921l-2.387,3.65a1.869,1.869,0,0,1-1.527.694l-2.095-.117c-.57-.031-.814-.4-.544-.809l2.387-3.65a1.872,1.872,0,0,1,1.528-.694l2.094.117C1036.79,130.144,1037.035,130.508,1036.764,130.921Z" fill="#404040"/>
              </g>
              <g>
                <path d="M1040.84,125.123l-2.387,3.65a1.725,1.725,0,0,1-1.388.7l-2.373-.132a.691.691,0,0,1-.526-1.042l2.508-3.41a1.727,1.727,0,0,1,1.389-.7l2.437-.172C1040.993,124.046,1041.111,124.71,1040.84,125.123Z"/>
                <path d="M1040.767,124.8l-2.388,3.65a1.869,1.869,0,0,1-1.527.694l-2.1-.117c-.569-.031-.814-.4-.544-.809l2.388-3.65a1.869,1.869,0,0,1,1.527-.694l2.1.117C1040.792,124.025,1041.037,124.389,1040.767,124.8Z" fill="#404040"/>
              </g>
              <g>
                <path d="M1044.843,119l-2.388,3.65a1.725,1.725,0,0,1-1.388.7l-2.372-.132a.691.691,0,0,1-.527-1.042l2.509-3.41a1.727,1.727,0,0,1,1.388-.7l2.437-.171C1044.995,117.927,1045.113,118.591,1044.843,119Z"/>
                <path d="M1044.769,118.683l-2.387,3.65a1.871,1.871,0,0,1-1.527.694l-2.1-.117c-.57-.031-.814-.4-.544-.809l2.387-3.65a1.872,1.872,0,0,1,1.528-.694l2.094.117C1044.8,117.905,1045.04,118.27,1044.769,118.683Z" fill="#404040"/>
              </g>
              <g>
                <path d="M1048.845,112.885l-2.387,3.65a1.726,1.726,0,0,1-1.389.7l-2.372-.132a.691.691,0,0,1-.526-1.042l2.508-3.41a1.731,1.731,0,0,1,1.389-.7l2.437-.171C1049,111.808,1049.116,112.472,1048.845,112.885Z"/>
                <path d="M1048.772,112.564l-2.388,3.65a1.869,1.869,0,0,1-1.527.694l-2.1-.117c-.569-.032-.814-.4-.544-.809l2.388-3.65a1.866,1.866,0,0,1,1.527-.694l2.1.117C1048.8,111.786,1049.042,112.151,1048.772,112.564Z" fill="#404040"/>
              </g>
              <g>
                <path d="M1052.848,106.766l-2.388,3.65a1.727,1.727,0,0,1-1.388.7l-2.372-.132a.691.691,0,0,1-.527-1.042l2.509-3.41a1.727,1.727,0,0,1,1.388-.7l2.437-.171C1053,105.689,1053.118,106.353,1052.848,106.766Z"/>
                <path d="M1052.774,106.445l-2.387,3.65a1.871,1.871,0,0,1-1.527.694l-2.095-.117c-.57-.032-.815-.4-.544-.809l2.387-3.65a1.869,1.869,0,0,1,1.527-.694l2.1.117C1052.8,105.667,1053.045,106.032,1052.774,106.445Z" fill="#404040"/>
              </g>
              <g>
                <path d="M1056.85,100.647l-2.387,3.65a1.729,1.729,0,0,1-1.389.7l-2.372-.132a.691.691,0,0,1-.526-1.042l2.508-3.41a1.731,1.731,0,0,1,1.389-.7l2.436-.171C1057,99.57,1057.121,100.234,1056.85,100.647Z"/>
                <path d="M1056.777,100.326l-2.388,3.65a1.872,1.872,0,0,1-1.527.694l-2.1-.117c-.569-.032-.814-.4-.544-.809l2.388-3.65a1.866,1.866,0,0,1,1.527-.694l2.1.116C1056.8,99.548,1057.047,99.912,1056.777,100.326Z" fill="#404040"/>
              </g>
              <g>
                <path d="M1060.853,94.528l-2.388,3.65a1.727,1.727,0,0,1-1.388.7l-2.372-.133a.691.691,0,0,1-.527-1.041l2.509-3.41a1.725,1.725,0,0,1,1.388-.7l2.437-.171C1061.005,93.45,1061.123,94.115,1060.853,94.528Z"/>
                <path d="M1060.779,94.207l-2.387,3.65a1.875,1.875,0,0,1-1.528.694l-2.094-.117c-.57-.032-.815-.4-.544-.809l2.387-3.65a1.869,1.869,0,0,1,1.527-.694l2.095.116C1060.805,93.429,1061.05,93.793,1060.779,94.207Z" fill="#404040"/>
              </g>
              <path d="M1089.068,137.92h0a.459.459,0,0,1-.372.169l-9.748-.543c-.139-.008-.2-.1-.133-.2h0a.459.459,0,0,1,.372-.169l9.749.544C1089.074,137.73,1089.134,137.819,1089.068,137.92Z" fill="#565656"/>
            </g>
          </g>
          <g>
            <rect x="29.226" y="69.646" width="142.384" height="91.9" transform="translate(-34.796 43.74) rotate(-21.032)" stroke="#6f6f6e" stroke-miterlimit="10" stroke-width="0.058" fill="url(#linear-gradient-2)"/>
            <rect x="28.21" y="78.093" width="142.234" height="71.299" transform="translate(-39.268 53.788) rotate(-25.478)" stroke="#6f6f6e" stroke-miterlimit="10" stroke-width="0.058" fill="url(#linear-gradient-3)"/>
            <rect x="33.751" y="78.731" width="144.719" height="87.463" transform="translate(-32.159 37.975) rotate(-17.666)" stroke="#6f6f6e" stroke-miterlimit="10" stroke-width="0.058" fill="url(#linear-gradient-4)"/>
            <path d="M161.787,58.835,107.931,75.987A125.257,125.257,0,0,0,62.5,182.247l125.827-40.074Z" fill="#e6e7e8"/>
            <rect x="30.243" y="97.806" width="136.299" height="0.905" transform="translate(-25.201 34.536) rotate(-17.686)" fill="#b1b1b1"/>
            <rect x="48.81" y="114.221" width="28.196" height="0.877" transform="translate(-31.861 24.531) rotate(-17.686)" fill="#b1b1b1"/>
            <rect x="122.545" y="89.499" width="35.785" height="0.877" transform="translate(-20.686 46.916) rotate(-17.686)" fill="#b1b1b1"/>
            <rect x="42.333" y="118.299" width="35.785" height="0.877" transform="translate(-33.227 23.909) rotate(-17.686)" fill="#b1b1b1"/>
            <rect x="123.478" y="92.424" width="35.785" height="0.877" transform="matrix(0.953, -0.304, 0.304, 0.953, -21.53, 47.338)" fill="#b1b1b1"/>
            <rect x="43.265" y="121.224" width="35.785" height="0.877" transform="translate(-34.071 24.331) rotate(-17.686)" fill="#b1b1b1"/>
            <rect x="124.41" y="95.348" width="35.785" height="0.877" transform="translate(-22.375 47.76) rotate(-17.686)" fill="#b1b1b1"/>
            <rect x="44.198" y="124.148" width="35.785" height="0.877" transform="translate(-34.915 24.752) rotate(-17.686)" fill="#b1b1b1"/>
            <rect x="125.343" y="98.273" width="35.785" height="0.877" transform="translate(-23.219 48.181) rotate(-17.686)" fill="#b1b1b1"/>
            <rect x="45.131" y="127.073" width="35.785" height="0.877" transform="translate(-35.76 25.174) rotate(-17.686)" fill="#b1b1b1"/>
            <rect x="86.343" y="102.634" width="35.785" height="27.891" transform="translate(-30.491 37.178) rotate(-17.687)" fill="#235e96"/>
            <rect x="126.276" y="101.198" width="35.785" height="0.877" transform="translate(-24.063 48.603) rotate(-17.686)" fill="#b1b1b1"/>
            <rect x="46.063" y="129.998" width="35.785" height="0.877" transform="translate(-36.604 25.595) rotate(-17.686)" fill="#b1b1b1"/>
            <rect x="127.334" y="104.929" width="30.476" height="0.877" transform="translate(-25.272 48.294) rotate(-17.686)" fill="#b1b1b1"/>
            <rect x="46.996" y="132.922" width="35.785" height="0.877" transform="translate(-37.449 26.017) rotate(-17.686)" fill="#b1b1b1"/>
            <rect x="47.928" y="135.847" width="35.785" height="0.877" transform="translate(-38.293 26.438) rotate(-17.686)" fill="#b1b1b1"/>
            <rect x="135.022" y="109.046" width="29.692" height="0.877" transform="translate(-26.178 50.706) rotate(-17.686)" fill="#b1b1b1"/>
            <rect x="48.861" y="138.772" width="35.785" height="0.877" transform="translate(-39.137 26.86) rotate(-17.686)" fill="#b1b1b1"/>
            <rect x="130.006" y="112.897" width="35.785" height="0.877" transform="matrix(0.953, -0.304, 0.304, 0.953, -27.441, 50.289)" fill="#b1b1b1"/>
            <rect x="49.794" y="141.696" width="35.785" height="0.877" transform="translate(-39.982 27.281) rotate(-17.686)" fill="#b1b1b1"/>
            <rect x="130.939" y="115.821" width="35.785" height="0.877" transform="matrix(0.953, -0.304, 0.304, 0.953, -28.286, 50.711)" fill="#b1b1b1"/>
            <rect x="51.076" y="146.869" width="20.986" height="0.877" transform="translate(-41.843 25.668) rotate(-17.687)" fill="#b1b1b1"/>
            <rect x="131.871" y="118.745" width="35.785" height="0.877" transform="translate(-29.13 51.133) rotate(-17.687)" fill="#b1b1b1"/>
            <rect x="97.797" y="133.742" width="30.084" height="0.877" transform="translate(-35.431 40.623) rotate(-17.686)" fill="#b1b1b1"/>
            <rect x="132.804" y="121.67" width="35.785" height="0.877" transform="translate(-29.974 51.553) rotate(-17.686)" fill="#b1b1b1"/>
            <rect x="58.632" y="149.53" width="29.599" height="0.877" transform="translate(-42.089 29.396) rotate(-17.686)" fill="#b1b1b1"/>
            <rect x="93.164" y="137.532" width="35.785" height="0.877" transform="translate(-36.667 40.26) rotate(-17.686)" fill="#b1b1b1"/>
            <rect x="133.736" y="124.595" width="35.785" height="0.877" transform="translate(-30.819 51.975) rotate(-17.686)" fill="#b1b1b1"/>
            <rect x="53.524" y="153.394" width="35.785" height="0.877" transform="translate(-43.359 28.968) rotate(-17.686)" fill="#b1b1b1"/>
            <rect x="94.096" y="140.457" width="35.785" height="0.877" transform="translate(-37.511 40.682) rotate(-17.686)" fill="#b1b1b1"/>
            <rect x="134.669" y="127.519" width="35.785" height="0.877" transform="translate(-31.663 52.396) rotate(-17.686)" fill="#b1b1b1"/>
            <rect x="54.457" y="156.319" width="35.785" height="0.877" transform="translate(-44.204 29.389) rotate(-17.686)" fill="#b1b1b1"/>
            <rect x="95.029" y="143.381" width="35.785" height="0.877" transform="translate(-38.356 41.103) rotate(-17.686)" fill="#b1b1b1"/>
            <rect x="135.768" y="131.517" width="28.722" height="0.877" transform="matrix(0.953, -0.304, 0.304, 0.953, -32.992, 51.845)" fill="#b1b1b1"/>
            <rect x="55.389" y="159.243" width="35.785" height="0.877" transform="translate(-45.049 29.811) rotate(-17.686)" fill="#b1b1b1"/>
            <rect x="95.961" y="146.306" width="35.785" height="0.877" transform="translate(-39.201 41.526) rotate(-17.687)" fill="#b1b1b1"/>
            <rect x="142.483" y="132.443" width="29.692" height="0.877" transform="translate(-32.934 54.078) rotate(-17.686)" fill="#b1b1b1"/>
            <rect x="56.322" y="162.168" width="35.785" height="0.877" transform="translate(-45.893 30.232) rotate(-17.686)" fill="#b1b1b1"/>
            <rect x="96.894" y="149.23" width="35.785" height="0.877" transform="translate(-40.045 41.947) rotate(-17.686)" fill="#b1b1b1"/>
            <rect x="137.467" y="136.293" width="35.785" height="0.877" transform="translate(-34.196 53.661) rotate(-17.686)" fill="#b1b1b1"/>
            <rect x="57.254" y="165.093" width="35.785" height="0.877" transform="translate(-46.737 30.654) rotate(-17.686)" fill="#b1b1b1"/>
            <rect x="97.827" y="152.155" width="35.785" height="0.877" transform="translate(-40.889 42.368) rotate(-17.686)" fill="#b1b1b1"/>
            <rect x="138.399" y="139.217" width="35.785" height="0.877" transform="translate(-35.041 54.083) rotate(-17.686)" fill="#b1b1b1"/>
            <rect x="98.759" y="155.08" width="35.785" height="0.877" transform="translate(-41.733 42.79) rotate(-17.686)" fill="#b1b1b1"/>
            <rect x="139.332" y="142.142" width="35.785" height="0.877" transform="translate(-35.885 54.504) rotate(-17.686)" fill="#b1b1b1"/>
            <rect x="99.692" y="158.004" width="35.785" height="0.877" transform="translate(-42.578 43.211) rotate(-17.686)" fill="#b1b1b1"/>
            <rect x="140.264" y="145.067" width="35.785" height="0.877" transform="translate(-36.73 54.926) rotate(-17.686)" fill="#b1b1b1"/>
            <rect x="141.197" y="147.991" width="35.785" height="0.877" transform="translate(-37.575 55.348) rotate(-17.686)" fill="#b1b1b1"/>
            <path d="M110.1,112.165c-10.875-1.667-19.241,4.527-23.349,8.48L91.425,135.3l34.094-10.872-3.29-10.316C119.642,113.667,115.8,113.038,110.1,112.165Z" fill="#0090e3"/>
            <rect x="56.748" y="89.142" width="70.505" height="4.084" transform="translate(-22.996 31.564) rotate(-17.34)" fill="#b1b1b1"/>
          </g>
          <g>
            <path d="M323.136,94.012,287.65,78.246a4.751,4.751,0,0,0-6.27,2.413L271.9,101.988a4.75,4.75,0,0,0,2.413,6.27l20.008,8.889,6.188,16.084,4.948-11.136,4.341,1.929a4.75,4.75,0,0,0,6.27-2.413l9.476-21.329A4.75,4.75,0,0,0,323.136,94.012Z" fill="#0090e3"/>
            <g opacity="0.49">
              <path d="M293,105.257l-18.829-8.365-2.264,5.1a4.75,4.75,0,0,0,2.413,6.27l18.828,8.365,2.265-5.1A4.75,4.75,0,0,0,293,105.257Z" fill="#00578a"/>
            </g>
            <path d="M254.69,88.238,290.176,104a4.751,4.751,0,0,1,2.412,6.27l-9.476,21.33a4.751,4.751,0,0,1-6.27,2.412l-20.008-8.889-16.084,6.189,4.948-11.136-4.342-1.929a4.751,4.751,0,0,1-2.412-6.27l9.476-21.329A4.75,4.75,0,0,1,254.69,88.238Z" fill="url(#linear-gradient-5)"/>
            <g>
              <g opacity="0.6">
                <circle cx="255.375" cy="106.379" r="3.173" fill="#0090e3"/>
              </g>
              <g opacity="0.8">
                <circle cx="265.815" cy="111.017" r="3.173" fill="#0090e3"/>
              </g>
              <circle cx="276.255" cy="115.655" r="3.173" fill="#0090e3"/>
            </g>
            <rect x="285.429" y="91.775" width="34.199" height="2.108" transform="translate(63.335 -114.36) rotate(23.841)" fill="#00578a"/>
            <rect x="283.634" y="95.838" width="34.199" height="2.108" transform="translate(64.824 -113.287) rotate(23.841)" fill="#00578a"/>
            <rect x="282.563" y="96.47" width="17.222" height="2.108" transform="translate(64.263 -109.369) rotate(23.841)" fill="#00578a"/>
          </g>
          <g>
            <path d="M1105.186,13.628c-1.18,1.037,1.641,6.178,6.3,11.481s9.4,8.762,10.577,7.725.165-5.15-5.784-11.936C1110.107,13.855,1106.367,12.59,1105.186,13.628Z" fill="#00578a"/>
            <path d="M1105.319,13.975c-.994.874,1.876,5.764,6.41,10.923s9.015,8.633,10.008,7.76-.185-4.705-5.974-11.306C1109.756,14.5,1106.313,13.1,1105.319,13.975Z" fill="#00578a"/>
            <g>
              <g>
                <path d="M1092.889,52.312,1134.8-2.044a1.592,1.592,0,0,1,2.234-.288,1.592,1.592,0,0,1,.289,2.233l-41.916,54.356Z" fill="#404040"/>
                <path d="M1087.984,61.281l7.427-7.024a3.608,3.608,0,0,0-1-1.313,2.781,2.781,0,0,0-1.524-.632Z" fill="#2d2c3a"/>
                <g mask="url(#mask-4)">
                  <path d="M1087.984,61.281l7.427-7.024a3.714,3.714,0,0,0-.722-1.068Z" opacity="0.25" fill="url(#_ÂÁ_Ï_ÌÌ_È_ËÂÌÚ_18)"/>
                </g>
                <path d="M1087.984,61.281l3.648-3.45a1.161,1.161,0,0,0-.447-.693.89.89,0,0,0-.822-.207Z" fill="#d1d1d2"/>
              </g>
              <g>
                <path d="M1083.4,46.191l8.777-5.241a3.613,3.613,0,0,0-.688-1.5,2.776,2.776,0,0,0-1.351-.948Z" fill="#33242b"/>
                <path d="M1089.671,38.893,1139.22-2.4a1.548,1.548,0,0,1,2.17.266,1.547,1.547,0,0,1-.13,2.181L1091.71,41.34Z" fill="#bb426c"/>
                <path d="M1083.4,46.191l8.309-4.851a3.791,3.791,0,0,0-.708-1.483,2.9,2.9,0,0,0-1.331-.964Z" fill="#2d2c3a"/>
                <g mask="url(#mask-5)">
                  <path d="M1083.4,46.191l8.309-4.851a3.874,3.874,0,0,0-.491-1.184Z" opacity="0.25" fill="url(#_ÂÁ_Ï_ÌÌ_È_ËÂÌÚ_18-2)"/>
                </g>
                <path d="M1083.4,46.191l4.081-2.383a1.2,1.2,0,0,0-.3-.763.908.908,0,0,0-.742-.394Z" fill="#d1d1d2"/>
              </g>
            </g>
            <path d="M1116.281,20.9c5.949,6.786,6.965,10.9,5.784,11.936l31.9-32.3s1.873-3.948-3.309-9.845c-5.059-5.756-9.338-4.547-9.338-4.547l-36.014,27.4C1106.608,12.677,1110.3,14.08,1116.281,20.9Z" fill="#235e96"/>
            <g mask="url(#mask-6)">
              <path d="M1108.6,14.641c14.984-10.027,26.442-15.89,33.178-18.428,4.5-1.7,9.222.03,12.5,1.84-.127-1.732-.906-4.282-3.617-7.368-5.059-5.756-9.338-4.547-9.338-4.547l-36.135,27.49S1106.035,12.981,1108.6,14.641Z" opacity="0.53" fill="url(#_ÂÁ_Ï_ÌÌ_È_ËÂÌÚ_44)" style="mix-blend-mode: overlay"/>
            </g>
            <path d="M1105.319,13.975c.994-.873,4.437.528,10.444,7.377,5.789,6.6,6.968,10.432,5.974,11.306-.275.242-.819.149-1.557-.22.015.075.03.15.044.225.854.392,1.5.472,1.841.171,1.181-1.037.165-5.15-5.784-11.936-6.174-7.043-9.914-8.308-11.1-7.27a.7.7,0,0,0-.181.26l.243.169A.465.465,0,0,1,1105.319,13.975Z" fill="#00578a"/>
          </g>
        </g>
      </g>
    </g>
  </g>
</svg>
